<?xml version="1.0" standalone="no"?>
<!DOCTYPE svg PUBLIC "-//W3C//DTD SVG 20010904//EN"
 "http://www.w3.org/TR/2001/REC-SVG-20010904/DTD/svg10.dtd">
<svg version="1.0" xmlns="http://www.w3.org/2000/svg"
 width="230.000000pt" height="230.000000pt" viewBox="0 0 230.000000 230.000000"
 preserveAspectRatio="xMidYMid meet">
<metadata>
Created by potrace 1.11, written by Peter Selinger 2001-2013
</metadata>
<g transform="translate(0.000000,230.000000) scale(0.100000,-0.100000)"
fill="#000000" stroke="none">
<path d="M1005 2134 c-100 -25 -166 -75 -380 -290 -253 -255 -318 -334 -351
-420 -10 -27 -20 -51 -23 -54 -7 -6 -12 -25 -16 -65 -2 -16 -4 -30 -5 -30 -4
0 -8 -44 -11 -116 l-3 -65 -21 30 c-26 38 -46 42 -99 22 -59 -24 -86 -50 -93
-91 -5 -32 -2 -39 35 -75 47 -44 121 -71 165 -59 18 5 27 4 28 -4 0 -7 2 -21
4 -32 13 -68 27 -154 31 -180 8 -63 30 -157 60 -265 4 -14 18 -35 32 -47 52
-45 355 -183 385 -175 4 1 7 -3 7 -9 0 -5 4 -8 9 -5 5 4 21 2 34 -3 123 -47
402 -62 574 -31 94 17 289 77 338 103 11 6 22 12 25 12 3 1 39 19 80 40 41 22
87 46 103 53 15 8 27 21 27 28 0 8 5 14 12 14 6 0 9 3 5 6 -3 4 0 22 8 41 13
30 21 63 50 208 3 17 7 44 9 60 2 17 7 46 11 65 9 41 16 88 16 112 0 14 7 16
32 12 18 -3 37 -7 44 -9 7 -2 15 0 18 5 4 6 14 10 24 10 48 0 131 70 131 112
0 31 -29 73 -64 91 -77 40 -116 31 -147 -36 -10 -23 -19 -40 -19 -37 -1 3 -3
43 -5 90 -13 268 -77 381 -394 692 -115 113 -164 157 -277 248 -42 33 -93 43
-229 46 -77 1 -149 1 -160 -2z"/>
</g>
</svg>
